<mxfile host="app.diagrams.net" modified="2021-12-07T05:40:33.187Z" agent="5.0 (Windows NT 10.0; Win64; x64) AppleWebKit/537.36 (KHTML, like Gecko) Chrome/96.0.4664.45 Safari/537.36" etag="zuhURkpoUekAHQ5MS2D1" version="15.9.1" type="github">
  <diagram id="dGMib69D_cBfETXL7jhn" name="Page-1">
    <mxGraphModel dx="1502" dy="717" grid="1" gridSize="10" guides="1" tooltips="1" connect="1" arrows="1" fold="1" page="1" pageScale="1" pageWidth="827" pageHeight="1169" background="#FFFFFF" math="0" shadow="0">
      <root>
        <mxCell id="0" />
        <mxCell id="1" parent="0" />
        <mxCell id="uv5CzfROaBmRkuvhpo79-32" value="Hóa đơn bán sản phẩm" style="swimlane;fontStyle=0;childLayout=stackLayout;horizontal=1;startSize=30;horizontalStack=0;resizeParent=1;resizeParentMax=0;resizeLast=0;collapsible=1;marginBottom=0;fillColor=#A8DADC;strokeColor=#457B9D;fontColor=#1D3557;" parent="1" vertex="1">
          <mxGeometry x="40" y="40" width="140" height="210" as="geometry">
            <mxRectangle x="40" y="40" width="140" height="30" as="alternateBounds" />
          </mxGeometry>
        </mxCell>
        <mxCell id="uv5CzfROaBmRkuvhpo79-33" value="ID hóa đơn" style="text;strokeColor=none;fillColor=none;align=left;verticalAlign=middle;spacingLeft=4;spacingRight=4;overflow=hidden;points=[[0,0.5],[1,0.5]];portConstraint=eastwest;rotatable=0;fontColor=#1D3557;" parent="uv5CzfROaBmRkuvhpo79-32" vertex="1">
          <mxGeometry y="30" width="140" height="30" as="geometry" />
        </mxCell>
        <mxCell id="uv5CzfROaBmRkuvhpo79-84" value="ID hóa đơn sp" style="text;strokeColor=none;fillColor=none;align=left;verticalAlign=middle;spacingLeft=4;spacingRight=4;overflow=hidden;points=[[0,0.5],[1,0.5]];portConstraint=eastwest;rotatable=0;fontColor=#1D3557;" parent="uv5CzfROaBmRkuvhpo79-32" vertex="1">
          <mxGeometry y="60" width="140" height="30" as="geometry" />
        </mxCell>
        <mxCell id="uv5CzfROaBmRkuvhpo79-34" value="ID nhân viên" style="text;strokeColor=none;fillColor=none;align=left;verticalAlign=middle;spacingLeft=4;spacingRight=4;overflow=hidden;points=[[0,0.5],[1,0.5]];portConstraint=eastwest;rotatable=0;fontColor=#1D3557;" parent="uv5CzfROaBmRkuvhpo79-32" vertex="1">
          <mxGeometry y="90" width="140" height="30" as="geometry" />
        </mxCell>
        <mxCell id="uv5CzfROaBmRkuvhpo79-35" value="ID khách hàng" style="text;strokeColor=none;fillColor=none;align=left;verticalAlign=middle;spacingLeft=4;spacingRight=4;overflow=hidden;points=[[0,0.5],[1,0.5]];portConstraint=eastwest;rotatable=0;fontColor=#1D3557;" parent="uv5CzfROaBmRkuvhpo79-32" vertex="1">
          <mxGeometry y="120" width="140" height="30" as="geometry" />
        </mxCell>
        <mxCell id="uv5CzfROaBmRkuvhpo79-83" value="ID sản phẩm    " style="text;strokeColor=none;fillColor=none;align=left;verticalAlign=middle;spacingLeft=4;spacingRight=4;overflow=hidden;points=[[0,0.5],[1,0.5]];portConstraint=eastwest;rotatable=0;fontColor=#1D3557;" parent="uv5CzfROaBmRkuvhpo79-32" vertex="1">
          <mxGeometry y="150" width="140" height="30" as="geometry" />
        </mxCell>
        <mxCell id="uv5CzfROaBmRkuvhpo79-85" value="Ngày" style="text;strokeColor=none;fillColor=none;align=left;verticalAlign=middle;spacingLeft=4;spacingRight=4;overflow=hidden;points=[[0,0.5],[1,0.5]];portConstraint=eastwest;rotatable=0;fontColor=#1D3557;" parent="uv5CzfROaBmRkuvhpo79-32" vertex="1">
          <mxGeometry y="180" width="140" height="30" as="geometry" />
        </mxCell>
        <mxCell id="uv5CzfROaBmRkuvhpo79-36" value="Hóa đơn sửa chữa" style="swimlane;fontStyle=0;childLayout=stackLayout;horizontal=1;startSize=30;horizontalStack=0;resizeParent=1;resizeParentMax=0;resizeLast=0;collapsible=1;marginBottom=0;fillColor=#A8DADC;strokeColor=#457B9D;fontColor=#1D3557;" parent="1" vertex="1">
          <mxGeometry x="215" y="545" width="140" height="120" as="geometry">
            <mxRectangle x="245" y="545" width="130" height="30" as="alternateBounds" />
          </mxGeometry>
        </mxCell>
        <mxCell id="uv5CzfROaBmRkuvhpo79-37" value="ID hóa đơn sửa chữa" style="text;strokeColor=none;fillColor=none;align=left;verticalAlign=middle;spacingLeft=4;spacingRight=4;overflow=hidden;points=[[0,0.5],[1,0.5]];portConstraint=eastwest;rotatable=0;fontColor=#1D3557;" parent="uv5CzfROaBmRkuvhpo79-36" vertex="1">
          <mxGeometry y="30" width="140" height="30" as="geometry" />
        </mxCell>
        <mxCell id="uv5CzfROaBmRkuvhpo79-38" value="ID sản phẩm" style="text;strokeColor=none;fillColor=none;align=left;verticalAlign=middle;spacingLeft=4;spacingRight=4;overflow=hidden;points=[[0,0.5],[1,0.5]];portConstraint=eastwest;rotatable=0;fontColor=#1D3557;" parent="uv5CzfROaBmRkuvhpo79-36" vertex="1">
          <mxGeometry y="60" width="140" height="30" as="geometry" />
        </mxCell>
        <mxCell id="uv5CzfROaBmRkuvhpo79-39" value="Ngày" style="text;strokeColor=none;fillColor=none;align=left;verticalAlign=middle;spacingLeft=4;spacingRight=4;overflow=hidden;points=[[0,0.5],[1,0.5]];portConstraint=eastwest;rotatable=0;fontColor=#1D3557;" parent="uv5CzfROaBmRkuvhpo79-36" vertex="1">
          <mxGeometry y="90" width="140" height="30" as="geometry" />
        </mxCell>
        <mxCell id="uv5CzfROaBmRkuvhpo79-40" value="Hóa đơn nhập sản phẩm" style="swimlane;fontStyle=0;childLayout=stackLayout;horizontal=1;startSize=30;horizontalStack=0;resizeParent=1;resizeParentMax=0;resizeLast=0;collapsible=1;marginBottom=0;fillColor=#A8DADC;strokeColor=#457B9D;fontColor=#1D3557;" parent="1" vertex="1">
          <mxGeometry x="610" y="600" width="140" height="120" as="geometry">
            <mxRectangle x="610" y="600" width="170" height="30" as="alternateBounds" />
          </mxGeometry>
        </mxCell>
        <mxCell id="uv5CzfROaBmRkuvhpo79-41" value="ID hóa đơn nhập xe" style="text;strokeColor=none;fillColor=none;align=left;verticalAlign=middle;spacingLeft=4;spacingRight=4;overflow=hidden;points=[[0,0.5],[1,0.5]];portConstraint=eastwest;rotatable=0;fontColor=#1D3557;" parent="uv5CzfROaBmRkuvhpo79-40" vertex="1">
          <mxGeometry y="30" width="140" height="30" as="geometry" />
        </mxCell>
        <mxCell id="uv5CzfROaBmRkuvhpo79-42" value="ID sản phẩm" style="text;strokeColor=none;fillColor=none;align=left;verticalAlign=middle;spacingLeft=4;spacingRight=4;overflow=hidden;points=[[0,0.5],[1,0.5]];portConstraint=eastwest;rotatable=0;fontColor=#1D3557;" parent="uv5CzfROaBmRkuvhpo79-40" vertex="1">
          <mxGeometry y="60" width="140" height="30" as="geometry" />
        </mxCell>
        <mxCell id="uv5CzfROaBmRkuvhpo79-43" value="Ngày" style="text;strokeColor=none;fillColor=none;align=left;verticalAlign=middle;spacingLeft=4;spacingRight=4;overflow=hidden;points=[[0,0.5],[1,0.5]];portConstraint=eastwest;rotatable=0;fontColor=#1D3557;" parent="uv5CzfROaBmRkuvhpo79-40" vertex="1">
          <mxGeometry y="90" width="140" height="30" as="geometry" />
        </mxCell>
        <mxCell id="uv5CzfROaBmRkuvhpo79-44" value="Chi tiết hóa đơn bán&#xa; sản phẩm" style="swimlane;fontStyle=0;childLayout=stackLayout;horizontal=1;startSize=50;horizontalStack=0;resizeParent=1;resizeParentMax=0;resizeLast=0;collapsible=1;marginBottom=0;fillColor=#A8DADC;strokeColor=#457B9D;fontColor=#1D3557;" parent="1" vertex="1">
          <mxGeometry x="290" y="30" width="140" height="230" as="geometry">
            <mxRectangle x="390" y="30" width="140" height="50" as="alternateBounds" />
          </mxGeometry>
        </mxCell>
        <mxCell id="uv5CzfROaBmRkuvhpo79-45" value="ID hóa đơn sản phẩm" style="text;strokeColor=none;fillColor=none;align=left;verticalAlign=middle;spacingLeft=4;spacingRight=4;overflow=hidden;points=[[0,0.5],[1,0.5]];portConstraint=eastwest;rotatable=0;fontColor=#1D3557;" parent="uv5CzfROaBmRkuvhpo79-44" vertex="1">
          <mxGeometry y="50" width="140" height="30" as="geometry" />
        </mxCell>
        <mxCell id="uv5CzfROaBmRkuvhpo79-46" value="Mã sản phẩm" style="text;strokeColor=none;fillColor=none;align=left;verticalAlign=middle;spacingLeft=4;spacingRight=4;overflow=hidden;points=[[0,0.5],[1,0.5]];portConstraint=eastwest;rotatable=0;fontColor=#1D3557;" parent="uv5CzfROaBmRkuvhpo79-44" vertex="1">
          <mxGeometry y="80" width="140" height="30" as="geometry" />
        </mxCell>
        <mxCell id="uv5CzfROaBmRkuvhpo79-47" value="Số lượng mua" style="text;strokeColor=none;fillColor=none;align=left;verticalAlign=middle;spacingLeft=4;spacingRight=4;overflow=hidden;points=[[0,0.5],[1,0.5]];portConstraint=eastwest;rotatable=0;fontColor=#1D3557;" parent="uv5CzfROaBmRkuvhpo79-44" vertex="1">
          <mxGeometry y="110" width="140" height="30" as="geometry" />
        </mxCell>
        <mxCell id="uv5CzfROaBmRkuvhpo79-123" value="Đơn giá" style="text;strokeColor=none;fillColor=none;align=left;verticalAlign=middle;spacingLeft=4;spacingRight=4;overflow=hidden;points=[[0,0.5],[1,0.5]];portConstraint=eastwest;rotatable=0;fontColor=#1D3557;" parent="uv5CzfROaBmRkuvhpo79-44" vertex="1">
          <mxGeometry y="140" width="140" height="30" as="geometry" />
        </mxCell>
        <mxCell id="uv5CzfROaBmRkuvhpo79-124" value="Thành tiền" style="text;strokeColor=none;fillColor=none;align=left;verticalAlign=middle;spacingLeft=4;spacingRight=4;overflow=hidden;points=[[0,0.5],[1,0.5]];portConstraint=eastwest;rotatable=0;fontColor=#1D3557;" parent="uv5CzfROaBmRkuvhpo79-44" vertex="1">
          <mxGeometry y="170" width="140" height="30" as="geometry" />
        </mxCell>
        <mxCell id="uv5CzfROaBmRkuvhpo79-125" value="Thuế VAT" style="text;strokeColor=none;fillColor=none;align=left;verticalAlign=middle;spacingLeft=4;spacingRight=4;overflow=hidden;points=[[0,0.5],[1,0.5]];portConstraint=eastwest;rotatable=0;fontColor=#1D3557;" parent="uv5CzfROaBmRkuvhpo79-44" vertex="1">
          <mxGeometry y="200" width="140" height="30" as="geometry" />
        </mxCell>
        <mxCell id="uv5CzfROaBmRkuvhpo79-64" value="Nhân viên" style="swimlane;fontStyle=0;childLayout=stackLayout;horizontal=1;startSize=30;horizontalStack=0;resizeParent=1;resizeParentMax=0;resizeLast=0;collapsible=1;marginBottom=0;fillColor=#A8DADC;strokeColor=#457B9D;fontColor=#1D3557;" parent="1" vertex="1">
          <mxGeometry x="50" y="910" width="140" height="210" as="geometry">
            <mxRectangle x="50" y="910" width="90" height="30" as="alternateBounds" />
          </mxGeometry>
        </mxCell>
        <mxCell id="uv5CzfROaBmRkuvhpo79-65" value="ID nhân viên " style="text;strokeColor=none;fillColor=none;align=left;verticalAlign=middle;spacingLeft=4;spacingRight=4;overflow=hidden;points=[[0,0.5],[1,0.5]];portConstraint=eastwest;rotatable=0;fontColor=#1D3557;" parent="uv5CzfROaBmRkuvhpo79-64" vertex="1">
          <mxGeometry y="30" width="140" height="30" as="geometry" />
        </mxCell>
        <mxCell id="uv5CzfROaBmRkuvhpo79-89" value="Họ tên" style="text;strokeColor=none;fillColor=none;align=left;verticalAlign=middle;spacingLeft=4;spacingRight=4;overflow=hidden;points=[[0,0.5],[1,0.5]];portConstraint=eastwest;rotatable=0;fontColor=#1D3557;" parent="uv5CzfROaBmRkuvhpo79-64" vertex="1">
          <mxGeometry y="60" width="140" height="30" as="geometry" />
        </mxCell>
        <mxCell id="uv5CzfROaBmRkuvhpo79-88" value="Giới tính" style="text;strokeColor=none;fillColor=none;align=left;verticalAlign=middle;spacingLeft=4;spacingRight=4;overflow=hidden;points=[[0,0.5],[1,0.5]];portConstraint=eastwest;rotatable=0;fontColor=#1D3557;" parent="uv5CzfROaBmRkuvhpo79-64" vertex="1">
          <mxGeometry y="90" width="140" height="30" as="geometry" />
        </mxCell>
        <mxCell id="uv5CzfROaBmRkuvhpo79-66" value="Địa chỉ" style="text;strokeColor=none;fillColor=none;align=left;verticalAlign=middle;spacingLeft=4;spacingRight=4;overflow=hidden;points=[[0,0.5],[1,0.5]];portConstraint=eastwest;rotatable=0;fontColor=#1D3557;" parent="uv5CzfROaBmRkuvhpo79-64" vertex="1">
          <mxGeometry y="120" width="140" height="30" as="geometry" />
        </mxCell>
        <mxCell id="uv5CzfROaBmRkuvhpo79-67" value="SĐT" style="text;strokeColor=none;fillColor=none;align=left;verticalAlign=middle;spacingLeft=4;spacingRight=4;overflow=hidden;points=[[0,0.5],[1,0.5]];portConstraint=eastwest;rotatable=0;fontColor=#1D3557;" parent="uv5CzfROaBmRkuvhpo79-64" vertex="1">
          <mxGeometry y="150" width="140" height="30" as="geometry" />
        </mxCell>
        <mxCell id="uv5CzfROaBmRkuvhpo79-87" value="Chức vụ" style="text;strokeColor=none;fillColor=none;align=left;verticalAlign=middle;spacingLeft=4;spacingRight=4;overflow=hidden;points=[[0,0.5],[1,0.5]];portConstraint=eastwest;rotatable=0;fontColor=#1D3557;" parent="uv5CzfROaBmRkuvhpo79-64" vertex="1">
          <mxGeometry y="180" width="140" height="30" as="geometry" />
        </mxCell>
        <mxCell id="uv5CzfROaBmRkuvhpo79-90" value="Sản phẩm" style="swimlane;fontStyle=0;childLayout=stackLayout;horizontal=1;startSize=30;horizontalStack=0;resizeParent=1;resizeParentMax=0;resizeLast=0;collapsible=1;marginBottom=0;fillColor=#A8DADC;strokeColor=#457B9D;fontColor=#1D3557;" parent="1" vertex="1">
          <mxGeometry x="460" y="350" width="140" height="120" as="geometry">
            <mxRectangle x="460" y="350" width="90" height="30" as="alternateBounds" />
          </mxGeometry>
        </mxCell>
        <mxCell id="uv5CzfROaBmRkuvhpo79-91" value="ID sản phẩm" style="text;strokeColor=none;fillColor=none;align=left;verticalAlign=middle;spacingLeft=4;spacingRight=4;overflow=hidden;points=[[0,0.5],[1,0.5]];portConstraint=eastwest;rotatable=0;fontColor=#1D3557;" parent="uv5CzfROaBmRkuvhpo79-90" vertex="1">
          <mxGeometry y="30" width="140" height="30" as="geometry" />
        </mxCell>
        <mxCell id="uv5CzfROaBmRkuvhpo79-92" value="Tên    " style="text;strokeColor=none;fillColor=none;align=left;verticalAlign=middle;spacingLeft=4;spacingRight=4;overflow=hidden;points=[[0,0.5],[1,0.5]];portConstraint=eastwest;rotatable=0;fontColor=#1D3557;" parent="uv5CzfROaBmRkuvhpo79-90" vertex="1">
          <mxGeometry y="60" width="140" height="30" as="geometry" />
        </mxCell>
        <mxCell id="uv5CzfROaBmRkuvhpo79-93" value="Màu sắc" style="text;strokeColor=none;fillColor=none;align=left;verticalAlign=middle;spacingLeft=4;spacingRight=4;overflow=hidden;points=[[0,0.5],[1,0.5]];portConstraint=eastwest;rotatable=0;fontColor=#1D3557;" parent="uv5CzfROaBmRkuvhpo79-90" vertex="1">
          <mxGeometry y="90" width="140" height="30" as="geometry" />
        </mxCell>
        <mxCell id="uv5CzfROaBmRkuvhpo79-126" value="Chi tiết hóa đơn &#xa;sửa chữa" style="swimlane;fontStyle=0;childLayout=stackLayout;horizontal=1;startSize=50;horizontalStack=0;resizeParent=1;resizeParentMax=0;resizeLast=0;collapsible=1;marginBottom=0;fillColor=#A8DADC;strokeColor=#457B9D;fontColor=#1D3557;" parent="1" vertex="1">
          <mxGeometry x="215" y="710" width="140" height="230" as="geometry">
            <mxRectangle x="250" y="790" width="120" height="50" as="alternateBounds" />
          </mxGeometry>
        </mxCell>
        <mxCell id="uv5CzfROaBmRkuvhpo79-127" value="ID hóa đơn sửa chữa" style="text;strokeColor=none;fillColor=none;align=left;verticalAlign=middle;spacingLeft=4;spacingRight=4;overflow=hidden;points=[[0,0.5],[1,0.5]];portConstraint=eastwest;rotatable=0;fontColor=#1D3557;" parent="uv5CzfROaBmRkuvhpo79-126" vertex="1">
          <mxGeometry y="50" width="140" height="30" as="geometry" />
        </mxCell>
        <mxCell id="uv5CzfROaBmRkuvhpo79-129" value="Số lượng" style="text;strokeColor=none;fillColor=none;align=left;verticalAlign=middle;spacingLeft=4;spacingRight=4;overflow=hidden;points=[[0,0.5],[1,0.5]];portConstraint=eastwest;rotatable=0;fontColor=#1D3557;" parent="uv5CzfROaBmRkuvhpo79-126" vertex="1">
          <mxGeometry y="80" width="140" height="30" as="geometry" />
        </mxCell>
        <mxCell id="uv5CzfROaBmRkuvhpo79-130" value="Đơn giá" style="text;strokeColor=none;fillColor=none;align=left;verticalAlign=middle;spacingLeft=4;spacingRight=4;overflow=hidden;points=[[0,0.5],[1,0.5]];portConstraint=eastwest;rotatable=0;fontColor=#1D3557;" parent="uv5CzfROaBmRkuvhpo79-126" vertex="1">
          <mxGeometry y="110" width="140" height="30" as="geometry" />
        </mxCell>
        <mxCell id="uv5CzfROaBmRkuvhpo79-131" value="Thành tiền" style="text;strokeColor=none;fillColor=none;align=left;verticalAlign=middle;spacingLeft=4;spacingRight=4;overflow=hidden;points=[[0,0.5],[1,0.5]];portConstraint=eastwest;rotatable=0;fontColor=#1D3557;" parent="uv5CzfROaBmRkuvhpo79-126" vertex="1">
          <mxGeometry y="140" width="140" height="30" as="geometry" />
        </mxCell>
        <mxCell id="uv5CzfROaBmRkuvhpo79-128" value="Phí dịch vụ" style="text;strokeColor=none;fillColor=none;align=left;verticalAlign=middle;spacingLeft=4;spacingRight=4;overflow=hidden;points=[[0,0.5],[1,0.5]];portConstraint=eastwest;rotatable=0;fontColor=#1D3557;" parent="uv5CzfROaBmRkuvhpo79-126" vertex="1">
          <mxGeometry y="170" width="140" height="30" as="geometry" />
        </mxCell>
        <mxCell id="uv5CzfROaBmRkuvhpo79-132" value="Tổng tiền" style="text;strokeColor=none;fillColor=none;align=left;verticalAlign=middle;spacingLeft=4;spacingRight=4;overflow=hidden;points=[[0,0.5],[1,0.5]];portConstraint=eastwest;rotatable=0;fontColor=#1D3557;" parent="uv5CzfROaBmRkuvhpo79-126" vertex="1">
          <mxGeometry y="200" width="140" height="30" as="geometry" />
        </mxCell>
        <mxCell id="uv5CzfROaBmRkuvhpo79-140" value="Khách hàng" style="swimlane;fontStyle=0;childLayout=stackLayout;horizontal=1;startSize=30;horizontalStack=0;resizeParent=1;resizeParentMax=0;resizeLast=0;collapsible=1;marginBottom=0;fillColor=#A8DADC;strokeColor=#457B9D;fontColor=#1D3557;" parent="1" vertex="1">
          <mxGeometry x="210" y="305" width="140" height="150" as="geometry">
            <mxRectangle x="210" y="305" width="100" height="30" as="alternateBounds" />
          </mxGeometry>
        </mxCell>
        <mxCell id="uv5CzfROaBmRkuvhpo79-141" value="ID khách hàng" style="text;strokeColor=none;fillColor=none;align=left;verticalAlign=middle;spacingLeft=4;spacingRight=4;overflow=hidden;points=[[0,0.5],[1,0.5]];portConstraint=eastwest;rotatable=0;startSize=30;fontColor=#1D3557;" parent="uv5CzfROaBmRkuvhpo79-140" vertex="1">
          <mxGeometry y="30" width="140" height="30" as="geometry" />
        </mxCell>
        <mxCell id="uv5CzfROaBmRkuvhpo79-144" value="Tên" style="text;strokeColor=none;fillColor=none;align=left;verticalAlign=middle;spacingLeft=4;spacingRight=4;overflow=hidden;points=[[0,0.5],[1,0.5]];portConstraint=eastwest;rotatable=0;startSize=30;fontColor=#1D3557;" parent="uv5CzfROaBmRkuvhpo79-140" vertex="1">
          <mxGeometry y="60" width="140" height="30" as="geometry" />
        </mxCell>
        <mxCell id="uv5CzfROaBmRkuvhpo79-142" value="Địa chỉ" style="text;strokeColor=none;fillColor=none;align=left;verticalAlign=middle;spacingLeft=4;spacingRight=4;overflow=hidden;points=[[0,0.5],[1,0.5]];portConstraint=eastwest;rotatable=0;startSize=30;fontColor=#1D3557;" parent="uv5CzfROaBmRkuvhpo79-140" vertex="1">
          <mxGeometry y="90" width="140" height="30" as="geometry" />
        </mxCell>
        <mxCell id="uv5CzfROaBmRkuvhpo79-143" value="SĐT" style="text;strokeColor=none;fillColor=none;align=left;verticalAlign=middle;spacingLeft=4;spacingRight=4;overflow=hidden;points=[[0,0.5],[1,0.5]];portConstraint=eastwest;rotatable=0;startSize=30;fontColor=#1D3557;" parent="uv5CzfROaBmRkuvhpo79-140" vertex="1">
          <mxGeometry y="120" width="140" height="30" as="geometry" />
        </mxCell>
        <mxCell id="uv5CzfROaBmRkuvhpo79-133" value="Chi tiết hóa đơn nhập&#xa; sản phẩm" style="swimlane;fontStyle=0;childLayout=stackLayout;horizontal=1;startSize=50;horizontalStack=0;resizeParent=1;resizeParentMax=0;resizeLast=0;collapsible=1;marginBottom=0;fillColor=#A8DADC;strokeColor=#457B9D;fontColor=#1D3557;" parent="1" vertex="1">
          <mxGeometry x="610" y="930" width="140" height="200" as="geometry">
            <mxRectangle x="620" y="920" width="150" height="50" as="alternateBounds" />
          </mxGeometry>
        </mxCell>
        <mxCell id="uv5CzfROaBmRkuvhpo79-134" value="ID hóa đơn nhập SP" style="text;strokeColor=none;fillColor=none;align=left;verticalAlign=middle;spacingLeft=4;spacingRight=4;overflow=hidden;points=[[0,0.5],[1,0.5]];portConstraint=eastwest;rotatable=0;fontColor=#1D3557;" parent="uv5CzfROaBmRkuvhpo79-133" vertex="1">
          <mxGeometry y="50" width="140" height="30" as="geometry" />
        </mxCell>
        <mxCell id="uv5CzfROaBmRkuvhpo79-135" value="Số lượng nhập" style="text;strokeColor=none;fillColor=none;align=left;verticalAlign=middle;spacingLeft=4;spacingRight=4;overflow=hidden;points=[[0,0.5],[1,0.5]];portConstraint=eastwest;rotatable=0;fontColor=#1D3557;" parent="uv5CzfROaBmRkuvhpo79-133" vertex="1">
          <mxGeometry y="80" width="140" height="30" as="geometry" />
        </mxCell>
        <mxCell id="uv5CzfROaBmRkuvhpo79-136" value="Đơn giá" style="text;strokeColor=none;fillColor=none;align=left;verticalAlign=middle;spacingLeft=4;spacingRight=4;overflow=hidden;points=[[0,0.5],[1,0.5]];portConstraint=eastwest;rotatable=0;fontColor=#1D3557;" parent="uv5CzfROaBmRkuvhpo79-133" vertex="1">
          <mxGeometry y="110" width="140" height="30" as="geometry" />
        </mxCell>
        <mxCell id="uv5CzfROaBmRkuvhpo79-137" value="Thành tiền" style="text;strokeColor=none;fillColor=none;align=left;verticalAlign=middle;spacingLeft=4;spacingRight=4;overflow=hidden;points=[[0,0.5],[1,0.5]];portConstraint=eastwest;rotatable=0;fontColor=#1D3557;" parent="uv5CzfROaBmRkuvhpo79-133" vertex="1">
          <mxGeometry y="140" width="140" height="30" as="geometry" />
        </mxCell>
        <mxCell id="uv5CzfROaBmRkuvhpo79-138" value="Thuế VAT" style="text;strokeColor=none;fillColor=none;align=left;verticalAlign=middle;spacingLeft=4;spacingRight=4;overflow=hidden;points=[[0,0.5],[1,0.5]];portConstraint=eastwest;rotatable=0;fontColor=#1D3557;" parent="uv5CzfROaBmRkuvhpo79-133" vertex="1">
          <mxGeometry y="170" width="140" height="30" as="geometry" />
        </mxCell>
        <mxCell id="uv5CzfROaBmRkuvhpo79-146" value="Nhà cung cấp" style="swimlane;fontStyle=0;childLayout=stackLayout;horizontal=1;startSize=30;horizontalStack=0;resizeParent=1;resizeParentMax=0;resizeLast=0;collapsible=1;marginBottom=0;fillColor=#A8DADC;strokeColor=#457B9D;fontColor=#1D3557;" parent="1" vertex="1">
          <mxGeometry x="490" y="30" width="140" height="120" as="geometry">
            <mxRectangle x="570" y="40" width="110" height="30" as="alternateBounds" />
          </mxGeometry>
        </mxCell>
        <mxCell id="uv5CzfROaBmRkuvhpo79-147" value="ID nhà cung cấp" style="text;strokeColor=none;fillColor=none;align=left;verticalAlign=middle;spacingLeft=4;spacingRight=4;overflow=hidden;points=[[0,0.5],[1,0.5]];portConstraint=eastwest;rotatable=0;startSize=30;fontColor=#1D3557;" parent="uv5CzfROaBmRkuvhpo79-146" vertex="1">
          <mxGeometry y="30" width="140" height="30" as="geometry" />
        </mxCell>
        <mxCell id="uv5CzfROaBmRkuvhpo79-148" value="Địa chỉ" style="text;strokeColor=none;fillColor=none;align=left;verticalAlign=middle;spacingLeft=4;spacingRight=4;overflow=hidden;points=[[0,0.5],[1,0.5]];portConstraint=eastwest;rotatable=0;startSize=30;fontColor=#1D3557;" parent="uv5CzfROaBmRkuvhpo79-146" vertex="1">
          <mxGeometry y="60" width="140" height="30" as="geometry" />
        </mxCell>
        <mxCell id="uv5CzfROaBmRkuvhpo79-149" value="SĐT" style="text;strokeColor=none;fillColor=none;align=left;verticalAlign=middle;spacingLeft=4;spacingRight=4;overflow=hidden;points=[[0,0.5],[1,0.5]];portConstraint=eastwest;rotatable=0;startSize=30;fontColor=#1D3557;" parent="uv5CzfROaBmRkuvhpo79-146" vertex="1">
          <mxGeometry y="90" width="140" height="30" as="geometry" />
        </mxCell>
        <mxCell id="uv5CzfROaBmRkuvhpo79-150" value="Kho" style="swimlane;fontStyle=0;childLayout=stackLayout;horizontal=1;startSize=30;horizontalStack=0;resizeParent=1;resizeParentMax=0;resizeLast=0;collapsible=1;marginBottom=0;fillColor=#A8DADC;strokeColor=#457B9D;fontColor=#1D3557;" parent="1" vertex="1">
          <mxGeometry x="670" y="350" width="140" height="150" as="geometry">
            <mxRectangle x="570" y="400" width="50" height="30" as="alternateBounds" />
          </mxGeometry>
        </mxCell>
        <mxCell id="uv5CzfROaBmRkuvhpo79-151" value="Mã sản phẩm" style="text;strokeColor=none;fillColor=none;align=left;verticalAlign=middle;spacingLeft=4;spacingRight=4;overflow=hidden;points=[[0,0.5],[1,0.5]];portConstraint=eastwest;rotatable=0;startSize=30;fontColor=#1D3557;" parent="uv5CzfROaBmRkuvhpo79-150" vertex="1">
          <mxGeometry y="30" width="140" height="30" as="geometry" />
        </mxCell>
        <mxCell id="uv5CzfROaBmRkuvhpo79-152" value="Tên sản phẩm" style="text;strokeColor=none;fillColor=none;align=left;verticalAlign=middle;spacingLeft=4;spacingRight=4;overflow=hidden;points=[[0,0.5],[1,0.5]];portConstraint=eastwest;rotatable=0;startSize=30;fontColor=#1D3557;" parent="uv5CzfROaBmRkuvhpo79-150" vertex="1">
          <mxGeometry y="60" width="140" height="30" as="geometry" />
        </mxCell>
        <mxCell id="uv5CzfROaBmRkuvhpo79-153" value="Số lượng còn lại" style="text;strokeColor=none;fillColor=none;align=left;verticalAlign=middle;spacingLeft=4;spacingRight=4;overflow=hidden;points=[[0,0.5],[1,0.5]];portConstraint=eastwest;rotatable=0;startSize=30;fontColor=#1D3557;" parent="uv5CzfROaBmRkuvhpo79-150" vertex="1">
          <mxGeometry y="90" width="140" height="30" as="geometry" />
        </mxCell>
        <mxCell id="uv5CzfROaBmRkuvhpo79-154" value="Số lượng đã bán" style="text;strokeColor=none;fillColor=none;align=left;verticalAlign=middle;spacingLeft=4;spacingRight=4;overflow=hidden;points=[[0,0.5],[1,0.5]];portConstraint=eastwest;rotatable=0;startSize=30;fontColor=#1D3557;" parent="uv5CzfROaBmRkuvhpo79-150" vertex="1">
          <mxGeometry y="120" width="140" height="30" as="geometry" />
        </mxCell>
        <mxCell id="pMQHemcvJotVO2MOoGLu-1" value="" style="endArrow=none;html=1;rounded=0;entryX=1.003;entryY=0.082;entryDx=0;entryDy=0;exitX=0;exitY=0.129;exitDx=0;exitDy=0;shadow=1;labelBackgroundColor=#F1FAEE;strokeColor=#457B9D;fontColor=#1D3557;entryPerimeter=0;exitPerimeter=0;" parent="1" source="uv5CzfROaBmRkuvhpo79-44" target="uv5CzfROaBmRkuvhpo79-32" edge="1">
          <mxGeometry width="50" height="50" relative="1" as="geometry">
            <mxPoint x="390" y="160" as="sourcePoint" />
            <mxPoint x="440" y="110" as="targetPoint" />
            <Array as="points" />
          </mxGeometry>
        </mxCell>
        <mxCell id="pMQHemcvJotVO2MOoGLu-2" value="1" style="text;html=1;strokeColor=none;fillColor=none;align=center;verticalAlign=middle;whiteSpace=wrap;rounded=0;fontColor=#1D3557;fontStyle=1" parent="1" vertex="1">
          <mxGeometry x="170" y="20" width="60" height="30" as="geometry" />
        </mxCell>
        <mxCell id="pMQHemcvJotVO2MOoGLu-5" value="" style="endArrow=none;html=1;rounded=0;shadow=1;entryX=0.5;entryY=0;entryDx=0;entryDy=0;exitX=0.5;exitY=1;exitDx=0;exitDy=0;labelBackgroundColor=#F1FAEE;strokeColor=#457B9D;fontColor=#1D3557;" parent="1" source="uv5CzfROaBmRkuvhpo79-36" target="uv5CzfROaBmRkuvhpo79-126" edge="1">
          <mxGeometry width="50" height="50" relative="1" as="geometry">
            <mxPoint x="400" y="680" as="sourcePoint" />
            <mxPoint x="450" y="630" as="targetPoint" />
          </mxGeometry>
        </mxCell>
        <mxCell id="pMQHemcvJotVO2MOoGLu-6" value="" style="endArrow=none;html=1;rounded=0;shadow=1;exitX=0.5;exitY=1;exitDx=0;exitDy=0;entryX=0.5;entryY=0;entryDx=0;entryDy=0;labelBackgroundColor=#F1FAEE;strokeColor=#457B9D;fontColor=#1D3557;" parent="1" source="uv5CzfROaBmRkuvhpo79-40" target="uv5CzfROaBmRkuvhpo79-133" edge="1">
          <mxGeometry width="50" height="50" relative="1" as="geometry">
            <mxPoint x="460" y="660" as="sourcePoint" />
            <mxPoint x="510" y="610" as="targetPoint" />
          </mxGeometry>
        </mxCell>
        <mxCell id="pMQHemcvJotVO2MOoGLu-7" value="Của" style="rhombus;whiteSpace=wrap;html=1;fillColor=#A8DADC;strokeColor=#457B9D;fontColor=#1D3557;" parent="1" vertex="1">
          <mxGeometry x="120" y="305" width="40" height="30" as="geometry" />
        </mxCell>
        <mxCell id="pMQHemcvJotVO2MOoGLu-8" value="" style="endArrow=none;html=1;rounded=0;shadow=1;entryX=0.569;entryY=1.053;entryDx=0;entryDy=0;exitX=0;exitY=0.5;exitDx=0;exitDy=0;labelBackgroundColor=#F1FAEE;strokeColor=#457B9D;fontColor=#1D3557;entryPerimeter=0;" parent="1" source="pMQHemcvJotVO2MOoGLu-7" target="uv5CzfROaBmRkuvhpo79-85" edge="1">
          <mxGeometry width="50" height="50" relative="1" as="geometry">
            <mxPoint x="390" y="320" as="sourcePoint" />
            <mxPoint x="440" y="270" as="targetPoint" />
            <Array as="points">
              <mxPoint x="120" y="320" />
            </Array>
          </mxGeometry>
        </mxCell>
        <mxCell id="pMQHemcvJotVO2MOoGLu-9" value="" style="endArrow=none;html=1;rounded=0;shadow=1;entryX=1;entryY=0.5;entryDx=0;entryDy=0;exitX=-0.023;exitY=0.097;exitDx=0;exitDy=0;labelBackgroundColor=#F1FAEE;strokeColor=#457B9D;fontColor=#1D3557;exitPerimeter=0;" parent="1" source="uv5CzfROaBmRkuvhpo79-140" target="pMQHemcvJotVO2MOoGLu-7" edge="1">
          <mxGeometry width="50" height="50" relative="1" as="geometry">
            <mxPoint x="350" y="530" as="sourcePoint" />
            <mxPoint x="400" y="480" as="targetPoint" />
          </mxGeometry>
        </mxCell>
        <mxCell id="pMQHemcvJotVO2MOoGLu-10" value="Lập bởi" style="rhombus;whiteSpace=wrap;html=1;fillColor=#fff2cc;strokeColor=#d6b656;gradientColor=#FFFF66;" parent="1" vertex="1">
          <mxGeometry x="40" y="560" width="70" height="60" as="geometry" />
        </mxCell>
        <mxCell id="pMQHemcvJotVO2MOoGLu-11" value="" style="endArrow=none;html=1;rounded=0;shadow=1;entryX=0.294;entryY=1;entryDx=0;entryDy=0;exitX=0.5;exitY=0;exitDx=0;exitDy=0;entryPerimeter=0;labelBackgroundColor=#F1FAEE;strokeColor=#457B9D;fontColor=#1D3557;" parent="1" source="pMQHemcvJotVO2MOoGLu-10" target="uv5CzfROaBmRkuvhpo79-85" edge="1">
          <mxGeometry width="50" height="50" relative="1" as="geometry">
            <mxPoint x="390" y="320" as="sourcePoint" />
            <mxPoint x="440" y="270" as="targetPoint" />
          </mxGeometry>
        </mxCell>
        <mxCell id="pMQHemcvJotVO2MOoGLu-12" value="" style="endArrow=none;html=1;rounded=0;shadow=1;entryX=0.5;entryY=1;entryDx=0;entryDy=0;exitX=0.194;exitY=0.004;exitDx=0;exitDy=0;labelBackgroundColor=#F1FAEE;strokeColor=#457B9D;fontColor=#1D3557;exitPerimeter=0;" parent="1" source="uv5CzfROaBmRkuvhpo79-64" target="pMQHemcvJotVO2MOoGLu-10" edge="1">
          <mxGeometry width="50" height="50" relative="1" as="geometry">
            <mxPoint x="75" y="740" as="sourcePoint" />
            <mxPoint x="450" y="630" as="targetPoint" />
          </mxGeometry>
        </mxCell>
        <mxCell id="pMQHemcvJotVO2MOoGLu-21" value="" style="endArrow=none;html=1;rounded=0;shadow=1;startSize=50;entryX=0.75;entryY=0;entryDx=0;entryDy=0;exitX=0.5;exitY=0;exitDx=0;exitDy=0;labelBackgroundColor=#F1FAEE;strokeColor=#457B9D;fontColor=#1D3557;" parent="1" source="uv5CzfROaBmRkuvhpo79-90" target="pMQHemcvJotVO2MOoGLu-105" edge="1">
          <mxGeometry width="50" height="50" relative="1" as="geometry">
            <mxPoint x="390" y="320" as="sourcePoint" />
            <mxPoint x="440" y="270" as="targetPoint" />
            <Array as="points" />
          </mxGeometry>
        </mxCell>
        <mxCell id="pMQHemcvJotVO2MOoGLu-22" value="" style="endArrow=none;html=1;rounded=0;shadow=1;startSize=50;entryX=1;entryY=0.147;entryDx=0;entryDy=0;exitX=1.011;exitY=0.157;exitDx=0;exitDy=0;labelBackgroundColor=#F1FAEE;strokeColor=#457B9D;fontColor=#1D3557;entryPerimeter=0;exitPerimeter=0;" parent="1" source="uv5CzfROaBmRkuvhpo79-40" target="uv5CzfROaBmRkuvhpo79-146" edge="1">
          <mxGeometry width="50" height="50" relative="1" as="geometry">
            <mxPoint x="390" y="320" as="sourcePoint" />
            <mxPoint x="440" y="270" as="targetPoint" />
            <Array as="points">
              <mxPoint x="830" y="619" />
              <mxPoint x="830" y="48" />
            </Array>
          </mxGeometry>
        </mxCell>
        <mxCell id="pMQHemcvJotVO2MOoGLu-23" value="" style="endArrow=none;html=1;rounded=0;shadow=1;startSize=50;entryX=0.5;entryY=1;entryDx=0;entryDy=0;exitX=1.021;exitY=0.148;exitDx=0;exitDy=0;labelBackgroundColor=#F1FAEE;strokeColor=#457B9D;fontColor=#1D3557;exitPerimeter=0;" parent="1" source="uv5CzfROaBmRkuvhpo79-36" target="uv5CzfROaBmRkuvhpo79-90" edge="1">
          <mxGeometry width="50" height="50" relative="1" as="geometry">
            <mxPoint x="400" y="530" as="sourcePoint" />
            <mxPoint x="450" y="480" as="targetPoint" />
            <Array as="points">
              <mxPoint x="530" y="560" />
            </Array>
          </mxGeometry>
        </mxCell>
        <mxCell id="pMQHemcvJotVO2MOoGLu-24" value="" style="endArrow=none;html=1;rounded=0;shadow=1;startSize=50;entryX=1.003;entryY=0.127;entryDx=0;entryDy=0;labelBackgroundColor=#F1FAEE;strokeColor=#457B9D;fontColor=#1D3557;entryPerimeter=0;exitX=-0.017;exitY=0.096;exitDx=0;exitDy=0;exitPerimeter=0;" parent="1" source="uv5CzfROaBmRkuvhpo79-150" target="uv5CzfROaBmRkuvhpo79-90" edge="1">
          <mxGeometry width="50" height="50" relative="1" as="geometry">
            <mxPoint x="640" y="365" as="sourcePoint" />
            <mxPoint x="450" y="480" as="targetPoint" />
            <Array as="points">
              <mxPoint x="620" y="365" />
            </Array>
          </mxGeometry>
        </mxCell>
        <mxCell id="pMQHemcvJotVO2MOoGLu-25" value="Bán" style="rhombus;whiteSpace=wrap;html=1;startSize=50;fillColor=#A8DADC;strokeColor=#457B9D;fontColor=#1D3557;" parent="1" vertex="1">
          <mxGeometry x="400" y="345" width="40" height="40" as="geometry" />
        </mxCell>
        <mxCell id="pMQHemcvJotVO2MOoGLu-26" value="" style="endArrow=none;html=1;rounded=0;shadow=1;startSize=50;entryX=-0.003;entryY=0.127;entryDx=0;entryDy=0;exitX=1;exitY=0.5;exitDx=0;exitDy=0;labelBackgroundColor=#F1FAEE;strokeColor=#457B9D;fontColor=#1D3557;entryPerimeter=0;" parent="1" source="pMQHemcvJotVO2MOoGLu-25" target="uv5CzfROaBmRkuvhpo79-90" edge="1">
          <mxGeometry width="50" height="50" relative="1" as="geometry">
            <mxPoint x="400" y="530" as="sourcePoint" />
            <mxPoint x="450" y="480" as="targetPoint" />
          </mxGeometry>
        </mxCell>
        <mxCell id="pMQHemcvJotVO2MOoGLu-27" value="" style="endArrow=none;html=1;rounded=0;shadow=1;startSize=50;entryX=0.5;entryY=0;entryDx=0;entryDy=0;exitX=1.023;exitY=0.103;exitDx=0;exitDy=0;labelBackgroundColor=#F1FAEE;strokeColor=#457B9D;fontColor=#1D3557;exitPerimeter=0;" parent="1" source="uv5CzfROaBmRkuvhpo79-140" target="pMQHemcvJotVO2MOoGLu-25" edge="1">
          <mxGeometry width="50" height="50" relative="1" as="geometry">
            <mxPoint x="400" y="530" as="sourcePoint" />
            <mxPoint x="450" y="480" as="targetPoint" />
            <Array as="points">
              <mxPoint x="420" y="320" />
            </Array>
          </mxGeometry>
        </mxCell>
        <mxCell id="pMQHemcvJotVO2MOoGLu-31" value="Của" style="rhombus;whiteSpace=wrap;html=1;fillColor=#fff2cc;strokeColor=#d6b656;gradientColor=#FFFF66;" parent="1" vertex="1">
          <mxGeometry x="260" y="490" width="40" height="30" as="geometry" />
        </mxCell>
        <mxCell id="pMQHemcvJotVO2MOoGLu-32" value="" style="endArrow=none;html=1;rounded=0;shadow=1;entryX=0.5;entryY=1;entryDx=0;entryDy=0;exitX=0.5;exitY=0;exitDx=0;exitDy=0;labelBackgroundColor=#F1FAEE;strokeColor=#457B9D;fontColor=#1D3557;" parent="1" source="pMQHemcvJotVO2MOoGLu-31" target="uv5CzfROaBmRkuvhpo79-140" edge="1">
          <mxGeometry width="50" height="50" relative="1" as="geometry">
            <mxPoint x="485" y="617.5" as="sourcePoint" />
            <mxPoint x="320" y="402.5" as="targetPoint" />
          </mxGeometry>
        </mxCell>
        <mxCell id="pMQHemcvJotVO2MOoGLu-33" value="" style="endArrow=none;html=1;rounded=0;shadow=1;entryX=0.5;entryY=1;entryDx=0;entryDy=0;labelBackgroundColor=#F1FAEE;strokeColor=#457B9D;fontColor=#1D3557;" parent="1" source="uv5CzfROaBmRkuvhpo79-36" target="pMQHemcvJotVO2MOoGLu-31" edge="1">
          <mxGeometry width="50" height="50" relative="1" as="geometry">
            <mxPoint x="355" y="577.5" as="sourcePoint" />
            <mxPoint x="280" y="530" as="targetPoint" />
          </mxGeometry>
        </mxCell>
        <mxCell id="pMQHemcvJotVO2MOoGLu-35" value="Lập bởi" style="rhombus;whiteSpace=wrap;html=1;direction=south;fillColor=#A8DADC;strokeColor=#457B9D;fontColor=#1D3557;" parent="1" vertex="1">
          <mxGeometry x="90" y="690" width="60" height="60" as="geometry" />
        </mxCell>
        <mxCell id="pMQHemcvJotVO2MOoGLu-36" value="" style="endArrow=none;html=1;rounded=0;shadow=1;entryX=0;entryY=0.5;entryDx=0;entryDy=0;exitX=0.001;exitY=0.135;exitDx=0;exitDy=0;labelBackgroundColor=#F1FAEE;strokeColor=#457B9D;fontColor=#1D3557;exitPerimeter=0;" parent="1" source="uv5CzfROaBmRkuvhpo79-36" target="pMQHemcvJotVO2MOoGLu-35" edge="1">
          <mxGeometry width="50" height="50" relative="1" as="geometry">
            <mxPoint x="413" y="590" as="sourcePoint" />
            <mxPoint x="575" y="890" as="targetPoint" />
            <Array as="points">
              <mxPoint x="120" y="560" />
            </Array>
          </mxGeometry>
        </mxCell>
        <mxCell id="pMQHemcvJotVO2MOoGLu-37" value="" style="endArrow=none;html=1;rounded=0;shadow=1;exitX=0.5;exitY=1;exitDx=0;exitDy=0;entryX=1;entryY=0.293;entryDx=0;entryDy=0;labelBackgroundColor=#F1FAEE;strokeColor=#457B9D;fontColor=#1D3557;entryPerimeter=0;" parent="1" source="pMQHemcvJotVO2MOoGLu-38" target="uv5CzfROaBmRkuvhpo79-66" edge="1">
          <mxGeometry width="50" height="50" relative="1" as="geometry">
            <mxPoint x="383.75" y="565" as="sourcePoint" />
            <mxPoint x="320" y="620" as="targetPoint" />
            <Array as="points">
              <mxPoint x="480" y="1040" />
            </Array>
          </mxGeometry>
        </mxCell>
        <mxCell id="pMQHemcvJotVO2MOoGLu-38" value="Lập bởi" style="rhombus;whiteSpace=wrap;html=1;fillColor=#fff2cc;strokeColor=#d6b656;gradientColor=#FFFF66;" parent="1" vertex="1">
          <mxGeometry x="450" y="585" width="60" height="60" as="geometry" />
        </mxCell>
        <mxCell id="pMQHemcvJotVO2MOoGLu-39" value="" style="endArrow=none;html=1;rounded=0;shadow=1;entryX=1;entryY=0.5;entryDx=0;entryDy=0;exitX=-0.023;exitY=0.117;exitDx=0;exitDy=0;labelBackgroundColor=#F1FAEE;strokeColor=#457B9D;fontColor=#1D3557;exitPerimeter=0;" parent="1" source="uv5CzfROaBmRkuvhpo79-40" target="pMQHemcvJotVO2MOoGLu-38" edge="1">
          <mxGeometry width="50" height="50" relative="1" as="geometry">
            <mxPoint x="476.25" y="490" as="sourcePoint" />
            <mxPoint x="638.75" y="790" as="targetPoint" />
            <Array as="points" />
          </mxGeometry>
        </mxCell>
        <mxCell id="pMQHemcvJotVO2MOoGLu-43" value="1" style="text;html=1;strokeColor=none;fillColor=none;align=center;verticalAlign=middle;whiteSpace=wrap;rounded=0;fontColor=#1D3557;fontStyle=1" parent="1" vertex="1">
          <mxGeometry x="230" y="20" width="60" height="30" as="geometry" />
        </mxCell>
        <mxCell id="pMQHemcvJotVO2MOoGLu-47" value="1" style="text;html=1;strokeColor=none;fillColor=none;align=center;verticalAlign=middle;whiteSpace=wrap;rounded=0;fontColor=#1D3557;" parent="1" vertex="1">
          <mxGeometry x="670" y="900" width="60" height="30" as="geometry" />
        </mxCell>
        <mxCell id="pMQHemcvJotVO2MOoGLu-55" value="1" style="text;html=1;strokeColor=none;fillColor=none;align=center;verticalAlign=middle;whiteSpace=wrap;rounded=0;fontColor=#1D3557;fontStyle=1" parent="1" vertex="1">
          <mxGeometry x="30" y="880" width="60" height="30" as="geometry" />
        </mxCell>
        <mxCell id="pMQHemcvJotVO2MOoGLu-62" value="N" style="text;html=1;strokeColor=none;fillColor=none;align=center;verticalAlign=middle;whiteSpace=wrap;rounded=0;fontColor=#1D3557;fontStyle=1" parent="1" vertex="1">
          <mxGeometry x="474" y="320" width="60" height="30" as="geometry" />
        </mxCell>
        <mxCell id="pMQHemcvJotVO2MOoGLu-63" value="1" style="text;html=1;strokeColor=none;fillColor=none;align=center;verticalAlign=middle;whiteSpace=wrap;rounded=0;fontColor=#1D3557;" parent="1" vertex="1">
          <mxGeometry x="340" y="290" width="60" height="30" as="geometry" />
        </mxCell>
        <mxCell id="pMQHemcvJotVO2MOoGLu-66" value="N" style="text;html=1;strokeColor=none;fillColor=none;align=center;verticalAlign=middle;whiteSpace=wrap;rounded=0;fontColor=#1D3557;" parent="1" vertex="1">
          <mxGeometry x="414" y="320" width="60" height="30" as="geometry" />
        </mxCell>
        <mxCell id="pMQHemcvJotVO2MOoGLu-70" value="1" style="text;html=1;strokeColor=none;fillColor=none;align=center;verticalAlign=middle;whiteSpace=wrap;rounded=0;fontColor=#1D3557;" parent="1" vertex="1">
          <mxGeometry x="370" y="380" width="60" height="30" as="geometry" />
        </mxCell>
        <mxCell id="pMQHemcvJotVO2MOoGLu-72" value="1" style="text;html=1;strokeColor=none;fillColor=none;align=center;verticalAlign=middle;whiteSpace=wrap;rounded=0;fontColor=#1D3557;fontStyle=1" parent="1" vertex="1">
          <mxGeometry x="110" y="880" width="60" height="30" as="geometry" />
        </mxCell>
        <mxCell id="pMQHemcvJotVO2MOoGLu-74" value="1" style="text;html=1;strokeColor=none;fillColor=none;align=center;verticalAlign=middle;whiteSpace=wrap;rounded=0;fontColor=#1D3557;fontStyle=1" parent="1" vertex="1">
          <mxGeometry x="185" y="1005" width="50" height="30" as="geometry" />
        </mxCell>
        <mxCell id="pMQHemcvJotVO2MOoGLu-75" value="N" style="text;html=1;strokeColor=none;fillColor=none;align=center;verticalAlign=middle;whiteSpace=wrap;rounded=0;fontColor=#1D3557;fontStyle=1" parent="1" vertex="1">
          <mxGeometry x="520" y="480" width="60" height="30" as="geometry" />
        </mxCell>
        <mxCell id="pMQHemcvJotVO2MOoGLu-76" value="Của" style="rhombus;whiteSpace=wrap;html=1;fillColor=#fff2cc;strokeColor=#d6b656;gradientColor=#FFFF66;" parent="1" vertex="1">
          <mxGeometry x="120" y="305" width="40" height="30" as="geometry" />
        </mxCell>
        <mxCell id="pMQHemcvJotVO2MOoGLu-77" value="Bán" style="rhombus;whiteSpace=wrap;html=1;startSize=50;fillColor=#fff2cc;strokeColor=#d6b656;gradientColor=#FFFF66;" parent="1" vertex="1">
          <mxGeometry x="400" y="345" width="40" height="40" as="geometry" />
        </mxCell>
        <mxCell id="pMQHemcvJotVO2MOoGLu-78" value="Lập bởi" style="rhombus;whiteSpace=wrap;html=1;direction=south;fillColor=#fff2cc;strokeColor=#d6b656;gradientColor=#FFFF66;" parent="1" vertex="1">
          <mxGeometry x="90" y="690" width="60" height="60" as="geometry" />
        </mxCell>
        <mxCell id="pMQHemcvJotVO2MOoGLu-83" value="1" style="text;html=1;strokeColor=none;fillColor=none;align=center;verticalAlign=middle;whiteSpace=wrap;rounded=0;fontColor=#1D3557;" parent="1" vertex="1">
          <mxGeometry x="340" y="290" width="60" height="30" as="geometry" />
        </mxCell>
        <mxCell id="pMQHemcvJotVO2MOoGLu-86" value="1" style="text;html=1;strokeColor=none;fillColor=none;align=center;verticalAlign=middle;whiteSpace=wrap;rounded=0;fontColor=#1D3557;" parent="1" vertex="1">
          <mxGeometry x="370" y="380" width="60" height="30" as="geometry" />
        </mxCell>
        <mxCell id="pMQHemcvJotVO2MOoGLu-90" value="1" style="text;html=1;strokeColor=none;fillColor=none;align=center;verticalAlign=middle;whiteSpace=wrap;rounded=0;fontColor=#1D3557;" parent="1" vertex="1">
          <mxGeometry x="340" y="290" width="60" height="30" as="geometry" />
        </mxCell>
        <mxCell id="pMQHemcvJotVO2MOoGLu-93" value="1" style="text;html=1;strokeColor=none;fillColor=none;align=center;verticalAlign=middle;whiteSpace=wrap;rounded=0;fontColor=#1D3557;" parent="1" vertex="1">
          <mxGeometry x="370" y="380" width="60" height="30" as="geometry" />
        </mxCell>
        <mxCell id="pMQHemcvJotVO2MOoGLu-95" value="N" style="text;html=1;strokeColor=none;fillColor=none;align=center;verticalAlign=middle;whiteSpace=wrap;rounded=0;fontColor=#1D3557;" parent="1" vertex="1">
          <mxGeometry x="20" y="260" width="60" height="30" as="geometry" />
        </mxCell>
        <mxCell id="pMQHemcvJotVO2MOoGLu-96" value="N" style="text;html=1;strokeColor=none;fillColor=none;align=center;verticalAlign=middle;whiteSpace=wrap;rounded=0;fontColor=#1D3557;" parent="1" vertex="1">
          <mxGeometry x="130" y="260" width="50" height="30" as="geometry" />
        </mxCell>
        <mxCell id="pMQHemcvJotVO2MOoGLu-98" value="1" style="text;html=1;strokeColor=none;fillColor=none;align=center;verticalAlign=middle;whiteSpace=wrap;rounded=0;fontColor=#1D3557;" parent="1" vertex="1">
          <mxGeometry x="340" y="290" width="60" height="30" as="geometry" />
        </mxCell>
        <mxCell id="pMQHemcvJotVO2MOoGLu-101" value="1" style="text;html=1;strokeColor=none;fillColor=none;align=center;verticalAlign=middle;whiteSpace=wrap;rounded=0;fontColor=#1D3557;" parent="1" vertex="1">
          <mxGeometry x="370" y="380" width="60" height="30" as="geometry" />
        </mxCell>
        <mxCell id="pMQHemcvJotVO2MOoGLu-105" value="1" style="text;html=1;strokeColor=none;fillColor=none;align=center;verticalAlign=middle;whiteSpace=wrap;rounded=0;fontColor=#1D3557;fontStyle=1" parent="1" vertex="1">
          <mxGeometry x="480" y="150" width="60" height="30" as="geometry" />
        </mxCell>
        <mxCell id="pMQHemcvJotVO2MOoGLu-106" value="N" style="text;html=1;strokeColor=none;fillColor=none;align=center;verticalAlign=middle;whiteSpace=wrap;rounded=0;fontColor=#1D3557;fontStyle=1" parent="1" vertex="1">
          <mxGeometry x="620" y="50" width="60" height="30" as="geometry" />
        </mxCell>
        <mxCell id="pMQHemcvJotVO2MOoGLu-107" value="N" style="text;html=1;strokeColor=none;fillColor=none;align=center;verticalAlign=middle;whiteSpace=wrap;rounded=0;fontColor=#1D3557;fontStyle=1" parent="1" vertex="1">
          <mxGeometry x="620" y="340" width="60" height="30" as="geometry" />
        </mxCell>
        <mxCell id="pMQHemcvJotVO2MOoGLu-112" value="1" style="text;html=1;strokeColor=none;fillColor=none;align=center;verticalAlign=middle;whiteSpace=wrap;rounded=0;fontColor=#1D3557;fontStyle=1" parent="1" vertex="1">
          <mxGeometry x="160" y="290" width="60" height="30" as="geometry" />
        </mxCell>
        <mxCell id="pMQHemcvJotVO2MOoGLu-113" value="N" style="text;html=1;strokeColor=none;fillColor=none;align=center;verticalAlign=middle;whiteSpace=wrap;rounded=0;fontColor=#1D3557;fontStyle=1" parent="1" vertex="1">
          <mxGeometry x="180" y="500" width="60" height="30" as="geometry" />
        </mxCell>
        <mxCell id="pMQHemcvJotVO2MOoGLu-114" value="1" style="text;html=1;strokeColor=none;fillColor=none;align=center;verticalAlign=middle;whiteSpace=wrap;rounded=0;fontColor=#1D3557;fontStyle=1" parent="1" vertex="1">
          <mxGeometry x="370" y="380" width="60" height="30" as="geometry" />
        </mxCell>
        <mxCell id="pMQHemcvJotVO2MOoGLu-116" value="N" style="text;html=1;strokeColor=none;fillColor=none;align=center;verticalAlign=middle;whiteSpace=wrap;rounded=0;fontColor=#1D3557;fontStyle=1" parent="1" vertex="1">
          <mxGeometry x="580" y="340" width="60" height="30" as="geometry" />
        </mxCell>
        <mxCell id="pMQHemcvJotVO2MOoGLu-120" value="N" style="text;html=1;strokeColor=none;fillColor=none;align=center;verticalAlign=middle;whiteSpace=wrap;rounded=0;fontColor=#1D3557;fontStyle=1" parent="1" vertex="1">
          <mxGeometry x="740" y="620" width="60" height="30" as="geometry" />
        </mxCell>
        <mxCell id="pMQHemcvJotVO2MOoGLu-121" value="1" style="text;html=1;strokeColor=none;fillColor=none;align=center;verticalAlign=middle;whiteSpace=wrap;rounded=0;fontColor=#1D3557;fontStyle=1" parent="1" vertex="1">
          <mxGeometry x="670" y="900" width="60" height="30" as="geometry" />
        </mxCell>
        <mxCell id="pMQHemcvJotVO2MOoGLu-122" value="1" style="text;html=1;strokeColor=none;fillColor=none;align=center;verticalAlign=middle;whiteSpace=wrap;rounded=0;fontColor=#1D3557;fontStyle=1" parent="1" vertex="1">
          <mxGeometry x="670" y="720" width="60" height="30" as="geometry" />
        </mxCell>
        <mxCell id="pMQHemcvJotVO2MOoGLu-123" value="N" style="text;html=1;strokeColor=none;fillColor=none;align=center;verticalAlign=middle;whiteSpace=wrap;rounded=0;fontColor=#1D3557;fontStyle=1" parent="1" vertex="1">
          <mxGeometry x="540" y="570" width="60" height="30" as="geometry" />
        </mxCell>
        <mxCell id="pMQHemcvJotVO2MOoGLu-125" value="1" style="text;html=1;strokeColor=none;fillColor=none;align=center;verticalAlign=middle;whiteSpace=wrap;rounded=0;fontColor=#1D3557;fontStyle=1" parent="1" vertex="1">
          <mxGeometry x="280" y="665" width="60" height="30" as="geometry" />
        </mxCell>
        <mxCell id="pMQHemcvJotVO2MOoGLu-126" value="N" style="text;html=1;strokeColor=none;fillColor=none;align=center;verticalAlign=middle;whiteSpace=wrap;rounded=0;fontColor=#1D3557;fontStyle=1" parent="1" vertex="1">
          <mxGeometry x="160" y="565" width="60" height="30" as="geometry" />
        </mxCell>
        <mxCell id="-meU6IFxFyFUuTkUodsY-4" value="" style="endArrow=none;html=1;rounded=0;shadow=1;entryX=1;entryY=0.5;entryDx=0;entryDy=0;labelBackgroundColor=#F1FAEE;strokeColor=#457B9D;fontColor=#1D3557;" edge="1" parent="1" target="pMQHemcvJotVO2MOoGLu-78">
          <mxGeometry width="50" height="50" relative="1" as="geometry">
            <mxPoint x="120" y="910" as="sourcePoint" />
            <mxPoint x="85" y="630" as="targetPoint" />
          </mxGeometry>
        </mxCell>
        <mxCell id="-meU6IFxFyFUuTkUodsY-9" value="N" style="text;html=1;strokeColor=none;fillColor=none;align=center;verticalAlign=middle;whiteSpace=wrap;rounded=0;fontColor=#1D3557;fontStyle=1" vertex="1" parent="1">
          <mxGeometry x="20" y="260" width="60" height="30" as="geometry" />
        </mxCell>
        <mxCell id="-meU6IFxFyFUuTkUodsY-10" value="N" style="text;html=1;strokeColor=none;fillColor=none;align=center;verticalAlign=middle;whiteSpace=wrap;rounded=0;fontColor=#1D3557;fontStyle=1" vertex="1" parent="1">
          <mxGeometry x="130" y="260" width="50" height="30" as="geometry" />
        </mxCell>
        <mxCell id="-meU6IFxFyFUuTkUodsY-11" value="1" style="text;html=1;strokeColor=none;fillColor=none;align=center;verticalAlign=middle;whiteSpace=wrap;rounded=0;fontColor=#1D3557;fontStyle=1" vertex="1" parent="1">
          <mxGeometry x="160" y="290" width="60" height="30" as="geometry" />
        </mxCell>
        <mxCell id="-meU6IFxFyFUuTkUodsY-12" value="1" style="text;html=1;strokeColor=none;fillColor=none;align=center;verticalAlign=middle;whiteSpace=wrap;rounded=0;fontColor=#1D3557;fontStyle=1" vertex="1" parent="1">
          <mxGeometry x="340" y="290" width="60" height="30" as="geometry" />
        </mxCell>
        <mxCell id="-meU6IFxFyFUuTkUodsY-13" value="N" style="text;html=1;strokeColor=none;fillColor=none;align=center;verticalAlign=middle;whiteSpace=wrap;rounded=0;fontColor=#1D3557;fontStyle=1" vertex="1" parent="1">
          <mxGeometry x="414" y="320" width="60" height="30" as="geometry" />
        </mxCell>
      </root>
    </mxGraphModel>
  </diagram>
</mxfile>
